# xmcd
#
# Track frame offsets:
#	150
#	16855
#	31132
#	45967
#	58467
#	72957
#	84192
#	100035
#	111380
#	123192
#	137087
#	153922
#	165902
#	179417
#	193707
#	210897
#	229107
#	246702
#	259472
#	272075
#
# Disc length: 3791 seconds
#
# Revision: 1
# Processed by: cddbd v1.4PL0 Copyright (c) Steve Scherf et al.
# Submitted via: audiograbber 1.82.02
#
DISCID=0e0ecd14
DTITLE=Billy Forest - Greatest Hits
DYEAR=1999
DGENRE=Country
TTITLE0=Hjanging Over The Boderline
TTITLE1=Mama Sang A Song
TTITLE2=Tiny Bubbles
TTITLE3=Hello Operator
TTITLE4=The Wedding Song
TTITLE5=Lazy Life
TTITLE6=For The First Time
TTITLE7=Across The Bridge
TTITLE8=She Can't Say That Anymore
TTITLE9=Whispering Hope
TTITLE10=Lucille
TTITLE11=Beyond The Sunset
TTITLE12=I Loved 'Em Everyone
TTITLE13=Amazing Grace
TTITLE14=Our Sweet Precious Love
TTITLE15=One Day At A Time
TTITLE16=For The Good Times
TTITLE17=Wings Of A Dove
TTITLE18=Still
TTITLE19=Liefde is my nooi se naam
EXTD=
EXTT0=
EXTT1=
EXTT2=
EXTT3=
EXTT4=
EXTT5=
EXTT6=
EXTT7=
EXTT8=
EXTT9=
EXTT10=
EXTT11=
EXTT12=
EXTT13=
EXTT14=
EXTT15=
EXTT16=
EXTT17=
EXTT18=
EXTT19=
PLAYORDER=
